<svg width="200" height="200" viewBox="0 0 200 200" fill="none" xmlns="http://www.w3.org/2000/svg">
<g clip-path="url(#clip0_1_2)">
<path d="M-0.353553 99.6465C-0.548816 99.8417 -0.548816 100.158 -0.353553 100.354L2.82843 103.536C3.02369 103.731 3.34027 103.731 3.53553 103.536C3.7308 103.34 3.7308 103.024 3.53553 102.828L0.707107 100L3.53553 97.1716C3.7308 96.9763 3.7308 96.6597 3.53553 96.4645C3.34027 96.2692 3.02369 96.2692 2.82843 96.4645L-0.353553 99.6465ZM200 99.5L-4.37114e-08 99.5L4.37114e-08 100.5L200 100.5L200 99.5Z" fill="white"/>
<path d="M1.64645 199.646C1.45118 199.842 1.45118 200.158 1.64645 200.354L4.82843 203.536C5.02369 203.731 5.34027 203.731 5.53553 203.536C5.7308 203.34 5.7308 203.024 5.53553 202.828L2.70711 200L5.53553 197.172C5.7308 196.976 5.7308 196.66 5.53553 196.464C5.34027 196.269 5.02369 196.269 4.82843 196.464L1.64645 199.646ZM202 199.5L2 199.5L2 200.5L202 200.5L202 199.5Z" fill="white"/>
</g>
<defs>
<clipPath id="clip0_1_2">
<rect width="200" height="200" fill="white"/>
</clipPath>
</defs>
</svg>
